<svg width="513" height="513" viewBox="0 0 513 513" fill="none" xmlns="http://www.w3.org/2000/svg">
<circle cx="256.287" cy="256.289" r="256" fill="#FF0039" style="fill:#FF0039;fill:color(display-p3 1.0000 0.0000 0.2235);fill-opacity:1;"/>
<path d="M136.202 309.079C116.232 309.079 101.519 304.838 92.0646 296.355C82.6098 287.872 77.8823 275.767 77.8823 260.038C77.8823 244.221 82.6098 231.718 92.0646 222.528C101.519 213.338 116.232 208.743 136.202 208.743C164.125 208.743 182.813 218.331 192.268 237.505C184.315 240.245 174.993 244.354 164.301 249.832C161.739 244.884 157.674 241.217 152.107 238.831C146.629 236.445 141.018 235.252 135.274 235.252C126.791 235.252 120.473 237.505 116.32 242.012C112.167 246.43 110.091 251.909 110.091 258.447C110.091 265.516 112.3 271.304 116.718 275.811C121.224 280.229 128.072 282.438 137.262 282.438C144.596 282.438 150.428 281.245 154.758 278.859C159.088 276.385 162.269 272.497 164.301 267.195C171.547 271.083 180.825 275.457 192.136 280.317C187.717 291.009 180.339 298.476 170.001 302.717C159.662 306.959 148.396 309.079 136.202 309.079ZM257.226 309.079C237.256 309.079 222.544 304.838 213.089 296.355C203.634 287.872 198.907 275.767 198.907 260.038C198.907 244.221 203.634 231.718 213.089 222.528C222.544 213.338 237.256 208.743 257.226 208.743C285.149 208.743 303.838 218.331 313.292 237.505C305.34 240.245 296.017 244.354 285.326 249.832C282.763 244.884 278.698 241.217 273.131 238.831C267.653 236.445 262.042 235.252 256.298 235.252C247.816 235.252 241.498 237.505 237.345 242.012C233.191 246.43 231.115 251.909 231.115 258.447C231.115 265.516 233.324 271.304 237.742 275.811C242.249 280.229 249.097 282.438 258.287 282.438C265.621 282.438 271.453 281.245 275.782 278.859C280.112 276.385 283.293 272.497 285.326 267.195C292.571 271.083 301.849 275.457 313.16 280.317C308.742 291.009 301.363 298.476 291.025 302.717C280.687 306.959 269.42 309.079 257.226 309.079ZM378.25 309.079C358.28 309.079 343.568 304.838 334.113 296.355C324.658 287.872 319.931 275.767 319.931 260.038C319.931 244.221 324.658 231.718 334.113 222.528C343.568 213.338 358.28 208.743 378.25 208.743C406.173 208.743 424.862 218.331 434.317 237.505C426.364 240.245 417.042 244.354 406.35 249.832C403.787 244.884 399.723 241.217 394.156 238.831C388.677 236.445 383.066 235.252 377.323 235.252C368.84 235.252 362.522 237.505 358.369 242.012C354.216 246.43 352.139 251.909 352.139 258.447C352.139 265.516 354.348 271.304 358.766 275.811C363.273 280.229 370.121 282.438 379.311 282.438C386.645 282.438 392.477 281.245 396.807 278.859C401.136 276.385 404.318 272.497 406.35 267.195C413.596 271.083 422.874 275.457 434.184 280.317C429.766 291.009 422.388 298.476 412.049 302.717C401.711 306.959 390.445 309.079 378.25 309.079Z" fill="black" style="fill:black;fill-opacity:1;"/>
</svg>
